<svg xmlns="http://www.w3.org/2000/svg" viewBox="0 0 482.35 85.97"><defs><style>.cls-1{fill:#fff;}</style></defs><g id="レイヤー_2" data-name="レイヤー 2"><g id="デザインレイヤー"><path class="cls-1" d="M34.17,67.36a1,1,0,0,0-.7-.61.84.84,0,0,0-.81.33,8.11,8.11,0,0,1-6.28,3.3A5,5,0,0,1,22.25,68a10.59,10.59,0,0,1-1.72-6.43V31.19a.47.47,0,0,1,.39-.5l11.83-.36a1.12,1.12,0,0,0,1-1.22V18a1.28,1.28,0,0,0-.42-1L7.67.17a.78.78,0,0,0-1,0,1.32,1.32,0,0,0-.48,1.06V18.1a.48.48,0,0,1-.4.51l-4.9.18A1.12,1.12,0,0,0,0,20V30.16a1,1,0,0,0,.93,1.13l4.9-.15a.45.45,0,0,1,.4.48V62.67c0,7.27,1.69,12.84,5.2,17A16,16,0,0,0,24.3,86c4.81,0,9.51-2.39,14-7.13a1.42,1.42,0,0,0,.22-1.47Z"/><path class="cls-1" d="M76.41,14.81c-8.54.33-15.67,4-21.23,11S46.87,41.21,46.87,51s2.78,18.14,8.31,24.82A26.47,26.47,0,0,0,76.41,86C85,86,92.35,82.49,98.13,75.59S106.9,60,106.9,49.89s-3-18.7-8.77-25.46A26.2,26.2,0,0,0,76.41,14.81ZM65.88,36.35c2.73-3.79,6.26-5.79,10.53-5.91a12.34,12.34,0,0,1,10.64,5.35c2.77,3.67,4.17,8.52,4.17,14.39s-1.4,10.74-4.17,14.48a13,13,0,0,1-10.64,5.68A12.49,12.49,0,0,1,65.89,64.9c-2.7-3.63-4.07-8.39-4.07-14.17S63.19,40.12,65.88,36.35Z"/><path class="cls-1" d="M196,10.29a25.24,25.24,0,0,0-12.47,4.12A27.8,27.8,0,0,0,173.81,25a.45.45,0,0,1-.41.26h0a.45.45,0,0,1-.4-.28,24.36,24.36,0,0,0-7.21-9.53,15.29,15.29,0,0,0-10.53-3.58c-6.1.23-11.33,3.45-16,9.83a.34.34,0,0,1-.49.13l-.12-.07a.57.57,0,0,0-.15-.12L124,15.86a.92.92,0,0,0-1.06,0,1.37,1.37,0,0,0-.53,1.1V83.65a1.17,1.17,0,0,0,1.06,1.26h14a1.17,1.17,0,0,0,1.07-1.26V49.36c0-5.76,1.33-10.23,4-13.3s5.72-4.69,9.18-4.78a7.93,7.93,0,0,1,7.69,4.09c1.59,2.79,2.35,7.05,2.35,13V83.61a1.19,1.19,0,0,0,1.1,1.27h14.67a1.21,1.21,0,0,0,1.11-1.29v-35c0-5.88,1.37-10.44,4.07-13.58a13,13,0,0,1,9.7-4.89c7.61-.21,11.5,5.66,11.5,17.44v36a1.23,1.23,0,0,0,1.14,1.3h15.3a1.24,1.24,0,0,0,1.17-1.31V39.59c0-9.78-2.36-17.28-7-22.27S203.56,10,196,10.29Z"/><path class="cls-1" d="M274,7.34a35,35,0,0,0-25.9,12.24c-6.72,7.66-10.11,17-10.11,27.83s3.39,20,10.11,27.36S263.61,86,274,86A34.9,34.9,0,0,0,300.6,74.49c7.12-7.68,10.74-17.27,10.74-28.47s-3.62-20.68-10.74-28.13S284.56,6.94,274,7.34ZM261.2,31.17A16.39,16.39,0,0,1,274,24.6a15.65,15.65,0,0,1,13,5.88c3.38,4.06,5.1,9.41,5.1,15.91s-1.72,11.88-5.1,16a16.36,16.36,0,0,1-13,6.29,15.79,15.79,0,0,1-12.84-6c-3.29-4-5-9.26-5-15.64S257.91,35.34,261.2,31.17Z"/><path class="cls-1" d="M378.65,43.45a50.38,50.38,0,0,0-7.32-3.81c-2-.79-5.47-2-10.29-3.43a59.22,59.22,0,0,1-10.4-4,5.87,5.87,0,0,1-3.37-5.34c0-4.13,3.46-6.33,10.32-6.54,6.09-.19,12.32,1.69,18.52,5.6a1.29,1.29,0,0,0,1.05.15,1.45,1.45,0,0,0,.85-.71l6.2-11.78a1.43,1.43,0,0,0-.45-1.87c-8.51-5.37-17.05-7.91-25.38-7.59-8.76.33-15.93,2.9-21.37,7.64a22.36,22.36,0,0,0-8.09,17.75c0,7.18,2.67,12.4,8.18,16a51.35,51.35,0,0,0,7.37,4.13c2.18,1,5.37,2.09,9.49,3.4a36.31,36.31,0,0,1,9.76,4.42c2.38,1.68,3.59,3.59,3.59,5.69a6,6,0,0,1-2.66,5.09,11.64,11.64,0,0,1-6.84,1.87c-8.43.07-16.44-2.75-23.84-8.35a1.25,1.25,0,0,0-1-.23,1.33,1.33,0,0,0-.85.58l-7,10.75a1.44,1.44,0,0,0,.27,1.89A49.59,49.59,0,0,0,340,82.81,52.55,52.55,0,0,0,357.38,86c8.34,0,15.36-2.38,20.84-7.11s8.25-11,8.25-18.88S383.91,46.7,378.65,43.45Z"/><path class="cls-1" d="M481.61,9.78,462.12,3.55a1.45,1.45,0,0,0-1.45.06,1.51,1.51,0,0,0-.73,1.29V46.51c0,6.61-1.78,11.75-5.28,15.28a17.2,17.2,0,0,1-12.39,5.36c-9.58.08-14.4-6.53-14.4-19.63V12.83a1.4,1.4,0,0,0-.7-1.23L408.59,5.5a1.38,1.38,0,0,0-1.4,0,1.53,1.53,0,0,0-.69,1.26V52.94c0,10.88,2.93,19.17,8.72,24.67S428.43,86,437.16,86s16-4,21.68-12.11a.63.63,0,0,1,.67-.23.61.61,0,0,1,.43.58v9a1.46,1.46,0,0,0,1.45,1.47h19.48a1.48,1.48,0,0,0,1.48-1.49V11A1.42,1.42,0,0,0,481.61,9.78Z"/></g></g></svg>